<svg width="641" height="240" viewBox="0 0 641 240" fill="none" xmlns="http://www.w3.org/2000/svg">
<g clip-path="url(#clip0_1292_3034)">
<path d="M229.74 52.0299C230.35 57.823 230.961 63.1483 231.5 68.4736C234.411 96.0718 237.357 123.67 240.267 151.268C240.698 155.298 240.734 155.298 237.213 157.169C227.332 162.459 216.841 166.633 206.025 169.619C204.804 169.979 203.726 170.699 202.971 171.742C189.785 190.92 172.538 205.025 150.8 213.373C128.847 221.829 106.318 223.304 83.5743 217.331C50.3746 208.624 26.1933 188.546 10.9588 157.817C4.67097 145.115 1.2935 131.55 0.50303 117.337C-1.1857 87.1483 7.76099 60.4856 27.5946 37.817C46.0629 16.6955 69.4537 4.10183 97.4435 0.935409C133.769 -3.20252 164.885 8.05985 190.647 33.9309C198.013 41.3432 204.157 49.9069 208.864 59.2622C209.978 61.4212 210.948 61.709 212.96 60.6296C217.775 58.0748 222.661 55.664 227.512 53.1813C228.159 52.9294 228.769 52.5696 229.74 52.0299ZM81.2389 205.493C81.0233 204.162 80.9155 203.082 80.6999 202.039C77.538 187.178 74.3402 172.318 71.1783 157.457C65.7528 131.946 60.2914 106.399 54.8659 80.8874C53.3927 73.9429 51.8836 67.0344 50.4105 60.0898C50.159 58.8305 49.6919 57.6431 51.201 56.5996C68.3757 44.4377 87.0955 36.6655 108.33 35.766C126.044 35.0104 142.788 39.1123 158.992 45.9849C159.639 46.2727 160.286 47.4961 160.286 48.2877C160.394 52.7135 160.43 57.1753 160.286 61.6011C160.214 63.5441 160.933 64.3717 162.729 64.8754C174.119 68.0059 186.12 68.2578 197.654 65.5591C198.3 65.3792 198.947 65.1633 199.558 64.8754C184.934 33.823 144.728 3.63406 94.102 12.0898C48.578 19.682 12.3601 58.5066 11.0307 107.658C9.62938 157.745 44.3023 194.806 81.2389 205.493ZM149.543 133.709C149.651 132.738 149.758 132.126 149.758 131.514C149.758 106.183 149.758 80.8155 149.794 55.4841C149.794 54.0808 149.291 53.3252 147.998 52.9294C144.656 51.8859 141.386 50.5906 138.009 49.691C111.672 42.7105 86.9518 46.4526 63.8126 60.9174C62.3394 61.8529 61.8723 62.7885 62.2675 64.5156C67.0463 86.6805 71.7891 108.845 76.496 131.01C77.2506 134.465 77.9692 137.955 78.8315 141.841C101.324 128.564 124.894 126.693 149.543 133.709ZM143.363 142.848C143.075 145.655 142.716 147.958 142.716 150.261C142.716 151.124 143.399 152.384 144.153 152.744C153.567 157.421 163.52 160.516 174.011 161.595C192.911 163.538 210.481 158.932 227.26 150.549C228.913 149.721 229.416 148.75 229.201 146.914C226.793 124.821 224.494 102.729 222.158 80.6356C221.763 76.7855 221.332 72.9354 220.865 68.6895C211.092 72.7195 201.498 76.0658 191.33 77.3252C181.018 78.6206 170.85 77.757 160.394 75.1303V148.426L143.363 142.848ZM188.923 173.289C188.204 172.785 188.096 172.642 187.952 172.642C187.27 172.606 186.551 172.57 185.868 172.57C166.933 173.289 149.579 168.072 133.158 159.004C131.865 158.285 131.398 157.529 131.542 156.09C131.937 151.988 132.009 147.814 132.584 143.748C132.943 141.265 132.009 140.69 129.817 140.474C112.714 138.747 97.0842 143.028 82.6401 152.096C81.9575 152.528 81.3826 153.931 81.5263 154.723C85.1553 172.102 88.892 189.481 92.557 206.86C92.8444 208.264 93.4911 208.768 94.8565 208.947C102.51 210.027 110.163 210.495 117.888 209.955C140.848 208.264 160.897 199.736 178 184.372C181.808 180.917 185.222 177.067 188.923 173.289Z" fill="#1E22AA"/>
<path d="M631.119 153.319L615.238 163.718C612.938 160.3 610.639 157.097 608.591 153.715C607.441 151.844 606.291 151.412 604.063 151.844C591.631 154.219 579.487 153.355 568.097 147.526C554.048 140.294 546.611 128.276 544.527 112.839C542.982 101.613 544.203 90.7106 549.916 80.6716C556.635 68.8695 567.019 62.1049 580.098 59.5141C594.937 56.5996 609.166 58.0389 621.993 66.7105C632.844 74.0149 638.772 84.5576 640.425 97.3672C641.826 108.27 640.353 118.812 635.431 128.744C633.059 133.565 629.682 137.847 625.622 141.373C624.436 142.381 624.292 143.136 625.191 144.432C627.203 147.238 629.035 150.153 631.119 153.319ZM611.573 123.67C612.076 123.094 612.579 122.519 613.01 121.907C618.579 112.552 619.334 102.657 615.202 92.7255C611.07 82.7945 602.626 78.7645 592.314 78.8005C582.433 78.8365 574.421 82.6146 569.822 91.9699C566.839 98.0869 566.624 104.6 567.63 111.184C569.606 123.922 579.02 132.198 591.631 132.414C592.35 132.414 593.069 132.306 594.254 132.198C592.135 128.923 590.302 126.045 588.398 123.238C587.571 122.051 587.679 121.367 588.937 120.648C590.625 119.64 592.206 118.525 593.823 117.481C596.949 115.466 600.039 113.451 603.273 111.364L611.573 123.67Z" fill="#1E22AA"/>
<path d="M323.231 94.2726C323.77 93.6968 324.416 92.9412 325.063 92.2216C334.118 81.6429 357.616 81.1391 366.132 95.0642C369.689 100.893 371.162 107.334 371.234 114.027C371.413 125.793 371.306 137.595 371.306 149.361C371.306 150.548 371.27 151.52 369.653 151.484C363.653 151.448 357.652 151.484 351.652 151.448C351.185 151.376 350.753 151.268 350.322 151.124V148.318C350.322 138.099 350.466 127.88 350.25 117.661C350.143 114.89 349.532 112.12 348.382 109.601C346.657 105.787 343.352 103.988 339.076 104.204C334.8 104.419 331.495 106.327 329.986 110.392C329.051 112.875 328.548 115.466 328.513 118.129C328.333 128.348 328.369 138.566 328.477 148.785C328.512 150.98 327.83 151.592 325.71 151.52C320.428 151.376 315.11 151.412 309.829 151.52C307.96 151.556 307.457 150.908 307.457 149.109C307.529 138.89 307.637 128.671 307.421 118.452C307.349 115.502 306.739 112.587 305.625 109.853C303.936 105.823 300.451 103.988 296.031 104.204C291.72 104.419 288.45 106.434 287.121 110.536C286.186 113.487 285.683 116.581 285.647 119.676C285.468 129.427 285.54 139.178 285.612 148.929C285.612 150.8 285.18 151.556 283.168 151.484C277.779 151.34 272.425 151.376 267.035 151.484C265.059 151.52 264.556 150.8 264.556 148.929C264.628 128.887 264.628 108.845 264.556 88.8033C264.556 86.6084 265.239 86.0327 267.359 86.0687C272.569 86.2126 277.743 86.1046 283.132 86.1046C283.24 87.8678 283.312 89.379 283.42 90.9622C297.612 81.5709 310.799 81.5349 323.231 94.2726Z" fill="#1E22AA"/>
<path d="M537.161 151.232H515.315V148.282C515.315 137.667 515.279 127.052 515.351 116.474C515.351 114.351 514.74 113.667 512.584 113.703C501.518 113.811 490.451 113.811 479.385 113.703C477.337 113.703 476.69 114.279 476.726 116.366C476.798 127.124 476.69 137.883 476.798 148.641C476.834 150.944 476.079 151.556 473.851 151.484C468.246 151.34 462.641 151.376 457.036 151.484C455.239 151.52 454.629 150.98 454.629 149.109C454.7 120.18 454.7 91.2501 454.629 62.3206C454.629 60.3775 455.203 59.7659 457.144 59.8018C462.749 59.9098 468.354 59.9458 473.959 59.8018C476.331 59.7299 476.798 60.6294 476.762 62.7883C476.654 72.8633 476.798 82.9023 476.69 92.9772C476.654 95.3161 477.337 96.0357 479.708 96.0357C490.631 95.9278 501.518 95.9278 512.441 96.0357C514.668 96.0357 515.387 95.388 515.351 93.1212C515.243 82.9023 515.351 72.6834 515.279 62.4645C515.243 60.3775 515.89 59.7658 517.938 59.8378C523.687 59.9458 529.472 59.9098 535.221 59.8738C536.586 59.8738 537.341 60.1257 537.341 61.7808C537.305 91.2501 537.305 120.719 537.305 150.225C537.269 150.512 537.233 150.872 537.161 151.232Z" fill="#1E22AA"/>
<path d="M380.073 160.156C386.289 160.156 392.361 160.12 398.397 160.228C398.936 160.228 399.655 161.019 399.942 161.631C402.709 166.956 407.596 169.115 414.386 167.856C419.884 166.848 422.758 163.574 423.261 157.421C423.513 153.967 423.297 150.476 423.297 146.626C422.291 147.202 421.537 147.706 420.782 148.102C411.332 153.211 401.667 153.319 392.074 148.821C385.247 145.619 381.654 139.574 379.965 132.449C379.067 128.671 378.564 124.785 378.456 120.899C378.24 110.141 378.456 99.382 378.348 88.6234C378.312 86.5364 378.959 85.9607 380.971 85.9967C386.971 86.1406 392.936 86.0327 399.332 86.0327V88.9472C399.332 98.9142 399.296 108.917 399.367 118.884C399.367 120.611 399.583 122.303 400.014 123.958C401.308 128.887 404.721 131.694 409.608 132.162C414.71 132.629 419.057 130.47 420.962 125.757C422.075 123.022 422.686 120.108 422.794 117.157C423.01 107.586 422.902 97.9787 422.83 88.4075C422.83 86.6084 423.261 85.9607 425.166 85.9967C431.238 86.1046 437.31 86.0327 443.67 86.0327C443.742 87.0042 443.813 87.8318 443.813 88.6593C443.813 109.709 443.921 130.758 443.742 151.808C443.706 156.018 443.095 160.192 441.945 164.222C439.358 173.253 433.394 179.334 424.303 181.961C414.386 184.839 404.434 184.695 394.732 180.989C386.504 177.895 380.037 168.719 380.073 160.156Z" fill="#1E22AA"/>
<path d="M302.894 228.666V232.444H297.361V198.909H302.894V212.222C304.691 209.703 307.206 207.688 311.158 207.688C316.835 207.688 322.404 212.186 322.404 220.282V220.39C322.404 228.414 316.907 232.984 311.158 232.984C307.098 232.912 304.583 230.897 302.894 228.666ZM316.727 220.354V220.246C316.727 215.568 313.565 212.474 309.793 212.474C306.02 212.474 302.714 215.604 302.714 220.246V220.354C302.714 224.996 306.02 228.126 309.793 228.126C313.601 228.09 316.727 225.104 316.727 220.354Z" fill="#1D1D1B"/>
<path d="M343.747 208.192H349.532L339.902 233.127C337.962 238.093 335.806 239.928 331.926 239.928C329.626 239.928 327.902 239.388 326.177 238.453L328.045 234.315C329.051 234.855 330.165 235.25 331.315 235.25C332.86 235.25 333.83 234.567 334.764 232.48L324.668 208.192H330.632L337.459 226.183L343.747 208.192Z" fill="#1D1D1B"/>
<path d="M380.037 200.06H385.283L399.403 232.444H393.439L390.169 224.672H375.007L371.701 232.444H365.916L380.037 200.06ZM388.121 219.67L382.588 206.825L377.091 219.67H388.121Z" fill="#1D1D1B"/>
<path d="M404.901 200.276H410.147L427.357 222.513V200.276H432.891V232.408H428.184L410.47 209.523V232.408H404.937L404.901 200.276Z" fill="#1D1D1B"/>
<path d="M452.509 200.06H457.754L471.875 232.444H465.911L462.641 224.672H447.478L444.173 232.444H438.388L452.509 200.06ZM460.557 219.67L455.024 206.825L449.526 219.67H460.557Z" fill="#1D1D1B"/>
<path d="M477.373 200.276H491.673C495.697 200.276 498.859 201.463 500.943 203.478C502.632 205.205 503.602 207.616 503.602 210.423V210.531C503.602 215.82 500.44 218.987 495.985 220.282L504.644 232.444H497.961L490.056 221.253H482.978V232.444H477.337L477.373 200.276ZM491.242 216.216C495.266 216.216 497.853 214.093 497.853 210.855V210.747C497.853 207.292 495.374 205.421 491.206 205.421H483.014V216.216H491.242Z" fill="#1D1D1B"/>
<path d="M509.099 216.432V216.324C509.099 207.292 516.07 199.7 525.915 199.7C535.76 199.7 542.658 207.184 542.658 216.216V216.324C542.658 225.355 535.688 232.948 525.843 232.948C515.962 232.984 509.099 225.499 509.099 216.432ZM536.73 216.432V216.324C536.73 210.063 532.202 204.882 525.807 204.882C519.447 204.882 514.992 209.991 514.992 216.216V216.324C514.992 222.585 519.519 227.73 525.915 227.73C532.274 227.73 536.73 222.693 536.73 216.432Z" fill="#1D1D1B"/>
<path d="M548.048 216.432V216.324C548.048 207.184 554.875 199.7 564.612 199.7C570.54 199.7 574.097 201.751 577.187 204.702L573.558 208.876C571.007 206.501 568.241 204.882 564.576 204.882C558.468 204.882 553.976 209.919 553.976 216.216V216.324C553.976 222.621 558.432 227.73 564.576 227.73C568.528 227.73 571.043 226.183 573.81 223.592L577.439 227.262C574.097 230.753 570.433 232.948 564.432 232.948C555.018 232.984 548.048 225.679 548.048 216.432Z" fill="#1D1D1B"/>
<path d="M583.332 200.276H588.973V216.432L604.243 200.276H611.214L597.812 214.093L611.788 232.408H604.926L593.967 217.943L588.973 223.088V232.408H583.332V200.276Z" fill="#1D1D1B"/>
<path d="M290.857 217.655H264.52V221.146H290.857V217.655Z" fill="#A74D96"/>
<path d="M640.964 217.655H614.627V221.146H640.964V217.655Z" fill="#A74D96"/>
</g>
<defs>
<clipPath id="clip0_1292_3034">
<rect width="641" height="240" fill="white"/>
</clipPath>
</defs>
</svg>
